<?xml version="1.0" standalone="no"?><!DOCTYPE svg PUBLIC "-//W3C//DTD SVG 1.1//EN" "http://www.w3.org/Graphics/SVG/1.1/DTD/svg11.dtd"><svg t="1536641709309" class="icon" style="" viewBox="0 0 1024 1024" version="1.1" xmlns="http://www.w3.org/2000/svg" p-id="4299" xmlns:xlink="http://www.w3.org/1999/xlink" width="200" height="200"><defs><style type="text/css"></style></defs><path d="M402.432 380.416v40.448c43.52 0 76.288-7.168 96.768-20.992V716.8h51.712V307.2h-39.936c-8.704 48.64-45.056 73.216-108.544 73.216z" p-id="4300"></path><path d="M512 64c-247.296 0-448 200.704-448 448s200.704 448 448 448 448-200.704 448-448-200.704-448-448-448z m0 851.456c-222.72 0-403.456-180.736-403.456-403.456S289.28 108.544 512 108.544s403.456 180.736 403.456 403.456-180.736 403.456-403.456 403.456z" p-id="4301"></path></svg>