<?xml version="1.0" standalone="no"?><!DOCTYPE svg PUBLIC "-//W3C//DTD SVG 1.1//EN" "http://www.w3.org/Graphics/SVG/1.1/DTD/svg11.dtd"><svg t="1536641714498" class="icon" style="" viewBox="0 0 1024 1024" version="1.1" xmlns="http://www.w3.org/2000/svg" p-id="4464" xmlns:xlink="http://www.w3.org/1999/xlink" width="200" height="200"><defs><style type="text/css"></style></defs><path d="M512 61.952c-247.296 0-448 200.704-448 448s200.704 448 448 448 448-200.704 448-448-200.704-448-448-448z m0 851.456c-222.72 0-403.456-180.736-403.456-403.456S289.28 106.496 512 106.496s403.456 180.736 403.456 403.456-180.736 403.456-403.456 403.456z" p-id="4465"></path><path d="M524.288 587.264c48.128-39.936 79.872-71.168 96.256-93.696 15.872-22.528 24.064-48.128 24.064-77.824 0-32.256-10.752-59.392-32.768-80.896-22.016-21.504-52.736-32.256-92.672-32.256-37.888 0-68.096 10.752-91.136 31.744s-36.352 49.152-38.912 84.992h53.76c2.048-25.088 9.728-43.52 24.064-56.832 14.336-12.8 31.744-19.456 51.712-19.456 23.04 0 41.472 6.144 54.272 18.944s19.456 30.208 19.456 52.224c0 24.576-7.68 46.592-22.528 66.56-14.848 19.456-43.008 45.568-83.456 78.336S417.792 619.52 402.944 641.536c-15.36 22.528-23.04 45.568-23.04 70.144H645.12v-47.616H450.56c1.024-10.752 25.6-36.864 73.728-76.8z m-143.872 108.032v-1.024 1.024s0-0.512 0 0z" p-id="4466"></path></svg>