<?xml version="1.0" standalone="no"?><!DOCTYPE svg PUBLIC "-//W3C//DTD SVG 1.1//EN" "http://www.w3.org/Graphics/SVG/1.1/DTD/svg11.dtd"><svg t="1536641760006" class="icon" style="" viewBox="0 0 1024 1024" version="1.1" xmlns="http://www.w3.org/2000/svg" p-id="5289" xmlns:xlink="http://www.w3.org/1999/xlink" width="200" height="200"><defs><style type="text/css"></style></defs><path d="M567.296 494.08c18.944-8.192 33.28-19.968 42.496-34.816 9.216-15.36 13.824-31.744 13.824-48.64 0-30.72-10.752-55.808-31.744-75.264-20.992-19.456-49.664-29.184-85.504-29.184-32.256 0-59.904 8.704-81.92 26.624-22.016 17.92-35.328 44.032-38.912 77.824h53.248c4.608-42.496 27.648-64 68.608-64 19.968 0 35.328 5.632 46.592 16.384 10.752 10.752 16.384 26.624 16.384 46.592 0 46.08-25.088 69.12-75.264 69.12h-11.776v40.448h19.968c28.672 0 50.176 6.656 65.024 20.48 14.848 13.824 22.528 33.28 22.528 58.368 0 24.576-7.168 45.056-21.504 60.416-14.336 15.36-33.792 23.552-57.856 23.552-25.088 0-44.032-7.168-57.344-21.504-13.312-14.336-19.968-31.232-19.968-51.2H379.904c2.048 34.304 14.848 61.44 38.4 81.92s54.784 31.232 92.672 31.232c37.888 0 69.12-11.776 94.72-34.816s38.4-53.248 38.4-90.624c0-25.088-6.656-46.592-19.968-65.024-13.312-18.944-32.256-31.232-56.832-37.888z" p-id="5290"></path><path d="M512 64c-247.296 0-448 200.704-448 448s200.704 448 448 448 448-200.704 448-448-200.704-448-448-448z m0 851.456c-222.72 0-403.456-180.736-403.456-403.456S289.28 108.544 512 108.544s403.456 180.736 403.456 403.456-180.736 403.456-403.456 403.456z" p-id="5291"></path></svg>